<svg xmlns="http://www.w3.org/2000/svg" viewBox="0 0 17.829 17.828">
  <defs>
    <style>
      .cls-1 {
        fill: #3fc5ef;
      }
    </style>
  </defs>
  <g id="icon_img_size" transform="translate(-611.172 -775)">
    <path id="合体_6" data-name="合体 6" class="cls-1" d="M-4173.646-3134.283a.5.5,0,0,1,0-.707l4.975-4.975h-2.793a.5.5,0,0,1-.5-.5.5.5,0,0,1,.5-.5h4a.5.5,0,0,1,.5.5v4a.5.5,0,0,1-.5.5.5.5,0,0,1-.5-.5v-2.793l-4.975,4.975a.5.5,0,0,1-.354.147A.5.5,0,0,1-4173.646-3134.283Z" transform="translate(4795.964 3915.964)"/>
    <path id="合体_9" data-name="合体 9" class="cls-1" d="M-4173.646-3134.283a.5.5,0,0,1,0-.707l4.975-4.975h-2.793a.5.5,0,0,1-.5-.5.5.5,0,0,1,.5-.5h4a.5.5,0,0,1,.5.5v4a.5.5,0,0,1-.5.5.5.5,0,0,1-.5-.5v-2.793l-4.975,4.975a.5.5,0,0,1-.354.147A.5.5,0,0,1-4173.646-3134.283Z" transform="translate(-3555.792 -2348.136) rotate(180)"/>
    <path id="合体_7" data-name="合体 7" class="cls-1" d="M-4173.646-3134.283a.5.5,0,0,1,0-.707l4.975-4.975h-2.793a.5.5,0,0,1-.5-.5.5.5,0,0,1,.5-.5h4a.5.5,0,0,1,.5.5v4a.5.5,0,0,1-.5.5.5.5,0,0,1-.5-.5v-2.793l-4.975,4.975a.5.5,0,0,1-.354.147A.5.5,0,0,1-4173.646-3134.283Z" transform="translate(-2511.964 4959.792) rotate(90)"/>
    <path id="合体_8" data-name="合体 8" class="cls-1" d="M-4173.646-3134.283a.5.5,0,0,1,0-.707l4.975-4.975h-2.793a.5.5,0,0,1-.5-.5.5.5,0,0,1,.5-.5h4a.5.5,0,0,1,.5.5v4a.5.5,0,0,1-.5.5.5.5,0,0,1-.5-.5v-2.793l-4.975,4.975a.5.5,0,0,1-.354.147A.5.5,0,0,1-4173.646-3134.283Z" transform="translate(3752.137 -3391.965) rotate(-90)"/>
  </g>
</svg>
