<svg xmlns="http://www.w3.org/2000/svg" width="99.17481" height="79.8418" viewBox="0 0 99.17481 79.8418"><defs><style>.cls-1{fill:#3fc5ef;}</style></defs><title>logo_under</title><g id="レイヤー_2" data-name="レイヤー 2"><g id="ol"><path class="cls-1" d="M35.78,4.6872a7.08561,7.08561,0,0,1,.74232,2.10912,12.52741,12.52741,0,0,1,.1952,2.18767,25.18939,25.18939,0,0,1-.15632,2.57807,19.78174,19.78174,0,0,1-.50784,2.85144,8.02962,8.02962,0,0,1-.9764,2.344,1.88185,1.88185,0,0,1-1.64056.9764,3.00914,3.00914,0,0,1-1.52351-.42732q-.7435-.42654-.35152-1.51487.54554-1.71029.89863-3.34121a16.21038,16.21038,0,0,0,.35152-3.41858q0-3.10772-1.67983-4.38988A6.95456,6.95456,0,0,0,26.796,3.35888,14.81745,14.81745,0,0,0,19.6867,5.54655a32.045,32.045,0,0,0-7.26528,5.62511,34.114,34.114,0,0,0-5.6251,7.61679A16.94055,16.94055,0,0,0,4.53088,26.8742a6.46429,6.46429,0,0,0,1.83576,4.64831A18.7252,18.7252,0,0,0,11.015,34.96q2.81256,1.52292,6.01551,2.92959A54.29207,54.29207,0,0,1,23.046,40.97507a17.38024,17.38024,0,0,1,4.64831,3.94566,8.53181,8.53181,0,0,1,1.83616,5.54656,9.24561,9.24561,0,0,1-1.875,5.27319,22.032,22.032,0,0,1-4.72647,4.88279A26.98183,26.98183,0,0,1,16.60078,64.217,17.62783,17.62783,0,0,1,9.99967,65.6231a16.66752,16.66752,0,0,1-1.67984-.11468,14.158,14.158,0,0,1-2.07023-.38334,5.28746,5.28746,0,0,1-1.71872-.76666A1.31322,1.31322,0,0,1,3.906,63.0953a1.38714,1.38714,0,0,1,.703-1.073A2.48964,2.48964,0,0,1,5.93735,61.639a4.541,4.541,0,0,1,1.28865.1952,4.85411,4.85411,0,0,0,1.36719.1952,14.97436,14.97436,0,0,0,4.45311-.901,24.63733,24.63733,0,0,0,5.31247-2.50581,20.15052,20.15052,0,0,0,4.45312-3.71943,6.74046,6.74046,0,0,0,1.87464-4.54345,4.8959,4.8959,0,0,0-.7812-2.7014,9.01093,9.01093,0,0,0-1.9528-2.15429,17.148,17.148,0,0,0-2.5392-1.683q-1.368-.74349-2.5388-1.37112Q14.452,41.27454,11.52279,39.983a36.1774,36.1774,0,0,1-5.50767-3.01482,16.56987,16.56987,0,0,1-4.2968-4.113A9.72082,9.72082,0,0,1,0,27.0207a20.03875,20.03875,0,0,1,2.30432-8.7719A35.79064,35.79064,0,0,1,8.43727,9.4773a36.031,36.031,0,0,1,8.63247-6.77511A19.91889,19.91889,0,0,1,26.95236,0a12.77763,12.77763,0,0,1,5.15615,1.05456A7.23435,7.23435,0,0,1,35.78,4.6872Z"/><path class="cls-1" d="M48.357,39.13931a6.00708,6.00708,0,0,1,.703,2.85143,9.24,9.24,0,0,1-.50784,3.00776,14.92083,14.92083,0,0,1-1.32792,2.85143,25.10975,25.10975,0,0,1-1.60168,2.38288,11.743,11.743,0,0,1-1.83576,2.03135,8.71034,8.71034,0,0,1-2.42175,1.5624,5.39481,5.39481,0,0,1-2.61736.42968A3.55073,3.55073,0,0,1,36.326,52.81088q-.70285,4.99886-1.3672,9.84375-.66455,4.84272-1.5624,8.67135A25.95038,25.95038,0,0,1,31.248,77.49781q-1.24839,2.34358-3.203,2.344a2.32418,2.32418,0,0,1-2.3436-1.641,10.31928,10.31928,0,0,1-.42968-4.33607,37.99467,37.99467,0,0,1,1.01568-6.09328q.82008-3.39816,1.99208-6.87487,1.1718-3.4771,2.5388-6.75782a59.40938,59.40938,0,0,1,2.69551-5.70288q.54553-2.26465.93712-4.45311.39-2.18571.70343-4.45272a2.34482,2.34482,0,0,1,.82009-1.48424,1.71327,1.71327,0,0,1,1.758-.15632,1.35335,1.35335,0,0,1,.9764,1.40608q-.04007,1.01628-.117,1.875a16.53806,16.53806,0,0,1,2.1484-2.344,7.15949,7.15949,0,0,1,2.77327-1.5624,4.42978,4.42978,0,0,1,2.77328.11744A3.50611,3.50611,0,0,1,48.357,39.13931ZM32.10733,57.02952A26.02611,26.02611,0,0,0,31.05277,59.881q-.58618,1.83459-1.172,3.94528-.58562,2.1097-1.13272,4.29679-.54555,2.1863-.85936,3.94527a21.74881,21.74881,0,0,0-.35152,2.85144q-.03829,1.09344.35152,1.01568.39178-.07895.82048-1.24976.43006-1.1724.89824-3.00776.46894-1.83693.85936-4.02343.39177-2.18806.74231-4.25791.35172-2.07082.586-3.789Q32.029,57.88849,32.10733,57.02952ZM40.076,51.014q.70284,0,1.99208-1.67944a19.42484,19.42484,0,0,0,2.22655-3.7108A13.40014,13.40014,0,0,0,45.46628,41.913q.23447-1.67905-1.17161-1.67984A4.76728,4.76728,0,0,0,41.3258,41.8737a14.83156,14.83156,0,0,0-3.04664,4.45311q0,.70344.03889,1.52312a5.638,5.638,0,0,0,.27375,1.52352,4.11005,4.11005,0,0,0,.5856,1.172A1.07828,1.07828,0,0,0,40.076,51.014Z"/><path class="cls-1" d="M55.46594,39.45194a2.3791,2.3791,0,0,1,1.13272-1.13272,1.56146,1.56146,0,0,1,1.172-.07816,1.31791,1.31791,0,0,1,.74231.85936,2.45769,2.45769,0,0,1-.15632,1.67984,58.67587,58.67587,0,0,0-2.26583,6.75743q-.93732,3.4771-1.79648,6.05439a1.43973,1.43973,0,0,1-.70343.93752,2.33036,2.33036,0,0,1-1.17161.31264,2.93657,2.93657,0,0,1-1.172-.23448,1.42275,1.42275,0,0,1-.7812-.85936,1.73523,1.73523,0,0,1-.07816-1.172,11.73183,11.73183,0,0,1,.31264-1.17161q1.24838-3.51539,2.22655-6.32775A35.58921,35.58921,0,0,1,55.46594,39.45194Zm6.09367-10.78126q1.56182,0,1.64056.93792a3.13883,3.13883,0,0,1-.3908,1.79648,25.47072,25.47072,0,0,1-1.99208,3.20335,1.84041,1.84041,0,0,1-1.60128.85936,3.03249,3.03249,0,0,1-1.172-.469.7041.7041,0,0,1-.31225-1.01568q.31107-.78.50745-1.24976.19441-.46894.35152-.82008.15612-.35231.35191-.78159.19383-.42831.58561-1.13272A2.3147,2.3147,0,0,1,61.55961,28.67068Z"/><path class="cls-1" d="M82.41791,44.92073a2.21539,2.21539,0,0,1,.54711-.35191,3.15383,3.15383,0,0,1,.7812-.27336,1.27516,1.27516,0,0,1,.703.03927c.20738.07777.31264.30007.31264.66377a2.871,2.871,0,0,1-.70343,1.21127,16.381,16.381,0,0,1-1.91392,1.99208,35.48062,35.48062,0,0,1-2.81216,2.26544A37.16339,37.16339,0,0,1,75.97311,52.655a20.17168,20.17168,0,0,1-3.59375,1.64016,11.02026,11.02026,0,0,1-3.55487.62528,8.42239,8.42239,0,0,1-3.203-.54672,6.565,6.565,0,0,1-2.18728-1.40648,5.6337,5.6337,0,0,1-1.289-1.95319,5.93162,5.93162,0,0,1-.42968-2.18728,10.2416,10.2416,0,0,1,.85935-4.10159,13.01234,13.01234,0,0,1,2.30472-3.59376,11.36579,11.36579,0,0,1,3.28112-2.5388,8.22792,8.22792,0,0,1,3.789-.93751,2.92526,2.92526,0,0,1,2.38248.82047,2.95476,2.95476,0,0,1,.66416,1.91392,5.7029,5.7029,0,0,1-.66416,2.96887,2.17872,2.17872,0,0,1-1.99208,1.09345q-1.25015,0-1.24976-1.09345a1.52469,1.52469,0,0,1,.27336-1.01567,4.7132,4.7132,0,0,1,.50784-.50824.95915.95915,0,0,0,.31264-.42967q.07659-.23389-.31264-.78081a2.01919,2.01919,0,0,0-1.875.42968,9.57572,9.57572,0,0,0-2.10913,2.031,15.44818,15.44818,0,0,0-1.758,2.81255,6.28825,6.28825,0,0,0-.74192,2.69512,3.47524,3.47524,0,0,0,.85936,2.38287,3.68165,3.68165,0,0,0,2.89032.97641,9.17435,9.17435,0,0,0,3.16407-.58561,19.34544,19.34544,0,0,0,3.24223-1.56279q1.64017-.9762,3.35928-2.22656Q80.62,46.3282,82.41791,44.92073Z"/><path class="cls-1" d="M99.05757,51.483a3.801,3.801,0,0,1,0,1.875,1.266,1.266,0,0,1-1.40608,1.01568,3.35392,3.35392,0,0,1-2.03135-.62528,5.03564,5.03564,0,0,1-1.40608-1.5624,7.68069,7.68069,0,0,1-.82048-2.03135,8.3686,8.3686,0,0,1-.27336-2.03135q-.86073.93791-1.875,2.03135a17.431,17.431,0,0,1-2.18728,1.99208,14.20487,14.20487,0,0,1-2.461,1.52351,5.93135,5.93135,0,0,1-2.617.62488A3.99558,3.99558,0,0,1,81.0892,53.1624,3.79718,3.79718,0,0,1,79.9176,50.311a6.5864,6.5864,0,0,1,.50745-2.49992,11.34436,11.34436,0,0,1,1.32831-2.38287,20.19442,20.19442,0,0,1,1.79688-2.1484q.97561-1.01449,1.83576-1.875a29.97023,29.97023,0,0,1,3.43743-2.77289,7.21327,7.21327,0,0,1,4.21863-1.36759,3.51422,3.51422,0,0,1,1.99208.66455,2.53492,2.53492,0,0,1,1.13272,1.83576,2.94064,2.94064,0,0,0,1.13272.42968q.66337.11666,1.05495,1.289-.23448.70284-.703,2.30471a17.36639,17.36639,0,0,0-.62527,3.32,7.87506,7.87506,0,0,0,.23448,3.00776A1.81061,1.81061,0,0,0,99.05757,51.483Zm-14.76541.31264a4.60667,4.60667,0,0,0,2.92959-1.44536,24.34351,24.34351,0,0,0,3.00776-3.28111,31.37189,31.37189,0,0,0,2.38287-3.55487,6.46986,6.46986,0,0,0,.9764-2.26544,1.9607,1.9607,0,0,0-.23408-1.01568q-.23448-.39-1.09384,0a13.75665,13.75665,0,0,0-4.17975,2.89032A25.25906,25.25906,0,0,0,84.8,46.99058a9.46341,9.46341,0,0,0-1.5624,3.35966Q82.96306,51.79659,84.29216,51.7956Z"/></g></g></svg>