<svg xmlns="http://www.w3.org/2000/svg" width="377.88477" height="237.48926" viewBox="0 0 377.88477 237.48926"><defs><style>.cls-1{fill:#bfbfbf;}.cls-2{fill:#3fc5ef;}</style></defs><title>logo</title><g id="レイヤー_2" data-name="レイヤー 2"><g id="ol"><path class="cls-1" d="M6.8291,237.44336a10.04167,10.04167,0,0,1-4.04687-.667A6.012,6.012,0,0,1,.50586,234.96L0,234.33887l1.28711-.96582.4834.62109c.78125.98828,1.70117,1.86328,5.05859,1.86328,3.08106,0,4.875-1.44922,4.875-3.70312,0-2.02344-1.72461-2.6211-4.9668-3.42578-3.24218-.78223-6.25488-1.81641-6.25488-5.01368,0-3.03515,2.32227-4.75976,6.34668-4.75976a6.53828,6.53828,0,0,1,5.12793,2.50683l.50586.62012-1.28809.9668-.48242-.6211A4.883,4.883,0,0,0,6.85254,220.542c-3.17383,0-4.71484,1.05762-4.71484,3.15039,0,2.06934,1.748,2.69043,5.03613,3.49512a16.21107,16.21107,0,0,1,4.09375,1.37988,4.00826,4.00826,0,0,1,2.16113,3.56348c0,3.47266-2.874,5.3125-6.53027,5.3125Z"/><path class="cls-1" d="M23.89453,225.25586h1.44922l2.874,9.26758,4.04688-10.85352h1.72461l-5.12793,13.77344H27.459l-2.80566-9.083-2.80566,9.083H20.44531l-5.12793-13.77344H17.042l4.04688,10.85352Z"/><path class="cls-1" d="M36.5166,230.752c0-3.77148,2.46094-7.082,5.79492-7.082,2.59864,0,4.415,1.47071,4.415,3.44922,0,2.13867-2.09277,3.70117-4.94433,3.70117H38.63184c-.39063,0-.43653.3916-.43653.55274,0,1.9541,1.93164,4.4375,4.13867,4.4375a3.86341,3.86341,0,0,0,3.40332-1.88477l1.28809.96485a5.3796,5.3796,0,0,1-4.71387,2.55273C38.83887,237.44336,36.5166,234.26953,36.5166,230.752Zm1.72461-1.541a2.08419,2.08419,0,0,1,.36817-.0459h3.127c2.02344,0,3.35742-.89649,3.35742-2.06934,0-.82812-.78223-1.83984-2.78223-1.83984C40.37988,225.25586,38.72461,226.93457,38.24121,229.21094Z"/><path class="cls-1" d="M50.01758,230.752c0-3.77148,2.46094-7.082,5.79492-7.082,2.59863,0,4.415,1.47071,4.415,3.44922,0,2.13867-2.09277,3.70117-4.94434,3.70117H52.13281c-.39062,0-.43652.3916-.43652.55274,0,1.9541,1.93164,4.4375,4.13867,4.4375a3.86342,3.86342,0,0,0,3.40332-1.88477l1.28809.96485a5.37961,5.37961,0,0,1-4.71387,2.55273C52.33984,237.44336,50.01758,234.26953,50.01758,230.752Zm1.72461-1.541a2.08414,2.08414,0,0,1,.36816-.0459h3.127c2.02344,0,3.35743-.89649,3.35743-2.06934,0-.82812-.78223-1.83984-2.78223-1.83984C53.88086,225.25586,52.22559,226.93457,51.74219,229.21094Z"/><path class="cls-1" d="M69.01172,235.834h.23047v1.60938h-.23047a5.19659,5.19659,0,0,1-4.9668-5.335V218.95508H65.6543v5.01367a3.51044,3.51044,0,0,1,.71289-.06934h2.875v1.60938h-2.875c-.71289,0-.73535.34473-.73535.5293v6.09277A3.56909,3.56909,0,0,0,69.01172,235.834Z"/><path class="cls-1" d="M92.24023,223.76172a4.7698,4.7698,0,0,1-4.76074,4.75976h-5.335c-.62012,0-.71191.25293-.71191.46v8.46191H79.82227V218.95508h7.68066A4.806,4.806,0,0,1,92.24023,223.76172Zm-4.76074,3.17285a3.16066,3.16066,0,0,0,3.17383-3.15039,3.19994,3.19994,0,0,0-3.17383-3.19629H81.43262v6.416a2.64612,2.64612,0,0,1,.62011-.06934Z"/><path class="cls-1" d="M95.82813,218.95508H97.4375v18.48828H95.82813Z"/><path class="cls-1" d="M101.16309,230.56836c0-3.74805,2.64453-6.89844,5.81836-6.89844a5.32029,5.32029,0,0,1,4.50683,2.5293l-1.28808.96484a3.86838,3.86838,0,0,0-3.19629-1.88476c-2.27637,0-4.18457,2.27636-4.18457,5.28906,0,3.01172,1.9082,5.26562,4.18457,5.26562a3.97461,3.97461,0,0,0,3.26562-1.88574l1.28809.96582a5.47912,5.47912,0,0,1-4.55371,2.5293C103.417,237.44336,101.16309,233.92578,101.16309,230.56836Z"/><path class="cls-1" d="M119.81543,235.834h.22949v1.60938h-.22949a5.19659,5.19659,0,0,1-4.9668-5.335V218.95508H116.458v5.01367a3.50353,3.50353,0,0,1,.71289-.06934h2.874v1.60938h-2.874c-.71289,0-.73633.34473-.73633.5293v6.09277A3.57052,3.57052,0,0,0,119.81543,235.834Z"/><path class="cls-1" d="M123.28223,232.1543v-8.48438h1.60937v8.48438a3.37154,3.37154,0,1,0,6.71485,0v-8.48438h1.60937v8.48438a4.97661,4.97661,0,1,1-9.93359,0Z"/><path class="cls-1" d="M137.415,237.44336v-8.46191a5.1606,5.1606,0,0,1,4.96777-5.31153h.22949v1.60938h-.22949a3.52956,3.52956,0,0,0-3.35742,3.67871v8.48535Z"/><path class="cls-1" d="M144.75488,230.752c0-3.77148,2.46-7.082,5.79395-7.082,2.59863,0,4.415,1.47071,4.415,3.44922,0,2.13867-2.0918,3.70117-4.94336,3.70117h-3.15039c-.39063,0-.4375.3916-.4375.55274,0,1.9541,1.93164,4.4375,4.13965,4.4375a3.86447,3.86447,0,0,0,3.40332-1.88477l1.28711.96485a5.37724,5.37724,0,0,1-4.71387,2.55273C147.07715,237.44336,144.75488,234.26953,144.75488,230.752Zm1.72461-1.541a2.08922,2.08922,0,0,1,.36719-.0459h3.12793c2.02344,0,3.35644-.89649,3.35644-2.06934,0-.82812-.78125-1.83984-2.78222-1.83984C148.61719,225.25586,146.96191,226.93457,146.47949,229.21094Z"/><path class="cls-1" d="M165.6377,228.22266c0-4.9668,3.35742-9.26758,7.543-9.26758,2.34473,0,4.668,1.37988,6.46094,4.36914l-1.37988.85156c-1.54-2.55273-3.28809-3.58789-5.08106-3.58789-3.21972,0-5.93359,3.38086-5.93359,7.63477s2.71387,7.63476,5.93359,7.63476c1.793,0,3.541-1.03515,5.08106-3.58789l1.37988.85059c-1.793,2.98926-4.11621,4.34668-6.46094,4.36914C168.627,237.48926,165.6377,232.84375,165.6377,228.22266Z"/><path class="cls-1" d="M182.80273,230.54492c0-3.79492,2.69043-6.875,6.002-6.875,3.61035,0,6.001,3.35742,6.001,6.875,0,3.81641-2.69043,6.89844-6.001,6.89844C185.19434,237.44336,182.80273,234.08594,182.80273,230.54492Zm1.60938-.02344c0,2.94336,2.001,5.3125,4.39258,5.3125s4.3916-2.36914,4.3916-5.3125-2-5.28906-4.3916-5.28906S184.41211,227.57813,184.41211,230.52148Z"/><path class="cls-1" d="M207.0127,237.44336V228.958a3.371,3.371,0,1,0-6.71387,0v8.48535h-1.61035V228.958a4.977,4.977,0,1,1,9.93457,0v8.48535Z"/><path class="cls-1" d="M217.85547,235.834h.23047v1.60938h-.23047a5.19659,5.19659,0,0,1-4.9668-5.335V218.95508h1.60938v5.01367a3.51044,3.51044,0,0,1,.71289-.06934h2.875v1.60938h-2.875c-.71289,0-.73535.34473-.73535.5293v6.09277A3.56909,3.56909,0,0,0,217.85547,235.834Z"/><path class="cls-1" d="M221.334,237.44336v-8.46191a5.1606,5.1606,0,0,1,4.96778-5.31153h.22949v1.60938h-.22949a3.52956,3.52956,0,0,0-3.35742,3.67871v8.48535Z"/><path class="cls-1" d="M228.65039,230.54492c0-3.79492,2.69043-6.875,6.002-6.875,3.61036,0,6.001,3.35742,6.001,6.875,0,3.81641-2.69043,6.89844-6.001,6.89844C231.042,237.44336,228.65039,234.08594,228.65039,230.54492Zm1.60938-.02344c0,2.94336,2.001,5.3125,4.39257,5.3125s4.39161-2.36914,4.39161-5.3125-2-5.28906-4.39161-5.28906S230.25977,227.57813,230.25977,230.52148Z"/><path class="cls-1" d="M244.72754,218.95508h1.60937v18.48828h-1.60937Z"/><path class="cls-1" d="M256.457,237.44336l6.46094-18.48828h1.37988l6.43848,18.48828h-1.67871l-2.3916-6.875a4.31585,4.31585,0,0,1-1.51758.22949h-3.40332a1.61536,1.61536,0,0,0-1.58594.82715l-2.02344,5.81836Zm4.55274-8.16309a4.05336,4.05336,0,0,1,.75878-.06933h3.40333a3.08323,3.08323,0,0,0,.98828-.1377l-2.55176-7.29Z"/><path class="cls-1" d="M273.47168,234.91406l1.26465-.98828c.98926,1.31055,1.56445,1.88477,3.81738,1.88477,2.02344,0,3.17383-.94239,3.17383-2.41407,0-1.40234-1.51758-1.77148-3.31152-2.23046-2.4834-.6211-4.53028-1.47266-4.53028-3.83985,0-2.23047,1.67871-3.65625,4.32324-3.65625a5.40934,5.40934,0,0,1,4.62207,2.5293l-1.26464.98828c-1.28809-1.67871-2.34571-1.93164-3.44922-1.93164-1.60938,0-2.5752.85156-2.5752,2.07031,0,1.42578,1.51758,1.81641,3.31055,2.27539,2.3916.59766,4.50781,1.40332,4.50781,3.74805,0,2.36914-1.90918,4.09375-4.80664,4.09375A5.43574,5.43574,0,0,1,273.47168,234.91406Z"/><path class="cls-1" d="M286.39063,234.91406l1.26464-.98828c.98828,1.31055,1.56348,1.88477,3.81739,1.88477,2.02343,0,3.17285-.94239,3.17285-2.41407,0-1.40234-1.51758-1.77148-3.31153-2.23046-2.48339-.6211-4.52929-1.47266-4.52929-3.83985,0-2.23047,1.67871-3.65625,4.32324-3.65625a5.40785,5.40785,0,0,1,4.62109,2.5293l-1.26464.98828c-1.28711-1.67871-2.34473-1.93164-3.44922-1.93164-1.60938,0-2.5752.85156-2.5752,2.07031,0,1.42578,1.51758,1.81641,3.31152,2.27539,2.39161.59766,4.50684,1.40332,4.50684,3.74805,0,2.36914-1.9082,4.09375-4.80566,4.09375A5.43574,5.43574,0,0,1,286.39063,234.91406Z"/><path class="cls-1" d="M300.78809,218.95508a1.17827,1.17827,0,0,1,1.17285,1.17285,1.15836,1.15836,0,0,1-1.17285,1.14941,1.13861,1.13861,0,0,1-1.15039-1.14941A1.15855,1.15855,0,0,1,300.78809,218.95508Zm-.75879,4.71484h1.60937v13.77344H300.0293Z"/><path class="cls-1" d="M305.02441,234.91406l1.26465-.98828c.98926,1.31055,1.56446,1.88477,3.81739,1.88477,2.02343,0,3.17382-.94239,3.17382-2.41407,0-1.40234-1.51757-1.77148-3.31152-2.23046-2.4834-.6211-4.53027-1.47266-4.53027-3.83985,0-2.23047,1.67871-3.65625,4.32324-3.65625a5.40936,5.40936,0,0,1,4.62207,2.5293l-1.26465.98828c-1.28809-1.67871-2.3457-1.93164-3.44922-1.93164-1.60937,0-2.57519.85156-2.57519,2.07031,0,1.42578,1.51757,1.81641,3.31054,2.27539,2.39161.59766,4.50782,1.40332,4.50782,3.74805,0,2.36914-1.90918,4.09375-4.80664,4.09375A5.43577,5.43577,0,0,1,305.02441,234.91406Z"/><path class="cls-1" d="M323.47852,235.834h.22949v1.60938h-.22949a5.19659,5.19659,0,0,1-4.9668-5.335V218.95508h1.60937v5.01367a3.5036,3.5036,0,0,1,.71289-.06934h2.874v1.60938h-2.874c-.71289,0-.73632.34473-.73632.5293v6.09277A3.57051,3.57051,0,0,0,323.47852,235.834Z"/><path class="cls-1" d="M326.43457,233.30469c0-2.32227,2.29981-4.13965,4.9668-4.13965H334.207c.0918,0,.55176-.02246.55176-.62012v-.75976c0-1.334-1.37988-2.50586-3.17285-2.50586a3.40535,3.40535,0,0,0-2.73633,1.24121l-.4834.64355-1.28711-.96484.48242-.64453a5.02238,5.02238,0,0,1,4.04688-1.88477c2.55273,0,4.76074,1.86133,4.76074,4.13867v5.51856c0,2.32324-2.2998,4.11621-4.96777,4.11621C328.73438,237.44336,326.43457,235.627,326.43457,233.30469Zm4.94434-2.48438c-1.83985.02344-3.38086,1.127-3.38086,2.48438,0,1.334,1.541,2.50586,3.38086,2.50586,1.8164,0,3.37988-1.17188,3.37988-2.50586v-2.57617a2.50039,2.50039,0,0,1-.59766.06933Z"/><path class="cls-1" d="M348.86914,237.44336V228.958a3.37145,3.37145,0,1,0-6.71484,0v8.48535h-1.60938V228.958a4.97656,4.97656,0,1,1,9.9336,0v8.48535Z"/><path class="cls-1" d="M354.25684,230.56836c0-3.74805,2.64453-6.89844,5.81836-6.89844a5.32029,5.32029,0,0,1,4.50683,2.5293l-1.28808.96484a3.86838,3.86838,0,0,0-3.19629-1.88476c-2.27637,0-4.18457,2.27636-4.18457,5.28906,0,3.01172,1.9082,5.26562,4.18457,5.26562a3.97461,3.97461,0,0,0,3.26562-1.88574l1.28809.96582a5.47912,5.47912,0,0,1-4.55371,2.5293C356.51074,237.44336,354.25684,233.92578,354.25684,230.56836Z"/><path class="cls-1" d="M367.377,230.752c0-3.77148,2.46-7.082,5.79395-7.082,2.59863,0,4.415,1.47071,4.415,3.44922,0,2.13867-2.0918,3.70117-4.94336,3.70117h-3.15039c-.39063,0-.4375.3916-.4375.55274,0,1.9541,1.93164,4.4375,4.13965,4.4375a3.86447,3.86447,0,0,0,3.40332-1.88477l1.28711.96485a5.37724,5.37724,0,0,1-4.71387,2.55273C369.69922,237.44336,367.377,234.26953,367.377,230.752Zm1.72461-1.541a2.08922,2.08922,0,0,1,.36719-.0459h3.12793c2.02344,0,3.35645-.89649,3.35645-2.06934,0-.82812-.78125-1.83984-2.78223-1.83984C371.23926,225.25586,369.584,226.93457,369.10156,229.21094Z"/><path class="cls-2" d="M152.99219,11.6543a17.618,17.618,0,0,1,1.8457,5.24414,31.14868,31.14868,0,0,1,.48535,5.43945,62.63363,62.63363,0,0,1-.38867,6.41016,49.18619,49.18619,0,0,1-1.26269,7.08984,19.96593,19.96593,0,0,1-2.42774,5.82813,4.67909,4.67909,0,0,1-4.0791,2.42773,7.48216,7.48216,0,0,1-3.78809-1.0625q-1.84863-1.06055-.874-3.7666,1.35645-4.25244,2.23437-8.30762a40.30577,40.30577,0,0,0,.874-8.5q0-7.72705-4.17676-10.915-4.1792-3.186-10.78027-3.19043-7.9673,0-17.67676,5.43946A79.67709,79.67709,0,0,0,94.91309,27.77734,84.821,84.821,0,0,0,80.92676,46.71582Q75.2915,57.10889,75.294,66.82031A16.073,16.073,0,0,0,79.8584,78.37793,46.559,46.559,0,0,0,91.416,86.9248q6.99317,3.78663,14.957,7.28418a134.994,134.994,0,0,1,14.957,7.67188,43.215,43.215,0,0,1,11.55762,9.81055,21.21365,21.21365,0,0,1,4.56543,13.791q0,6.41016-4.66211,13.11133a54.781,54.781,0,0,1-11.752,12.14063,67.08839,67.08839,0,0,1-15.73437,8.93554A43.83026,43.83026,0,0,1,88.8916,163.166a41.4436,41.4436,0,0,1-4.17676-.28516,35.206,35.206,0,0,1-5.14746-.95313,13.14648,13.14648,0,0,1-4.27343-1.90625,3.26519,3.26519,0,0,1-1.55372-3.14062,3.44906,3.44906,0,0,1,1.74805-2.668,6.19032,6.19032,0,0,1,3.30274-.95312,11.29057,11.29057,0,0,1,3.2041.48535,12.06961,12.06961,0,0,0,3.39941.48535,37.23207,37.23207,0,0,0,11.07227-2.24024,61.2583,61.2583,0,0,0,13.209-6.23046,50.10215,50.10215,0,0,0,11.07227-9.24805,16.75955,16.75955,0,0,0,4.66113-11.29688,12.17309,12.17309,0,0,0-1.94238-6.71679,22.40522,22.40522,0,0,0-4.85547-5.35645,42.63685,42.63685,0,0,0-6.31348-4.18457q-3.40137-1.84863-6.3125-3.40918-6.02343-2.92236-13.30664-6.13379A89.9533,89.9533,0,0,1,78.98438,91.918a41.19966,41.19966,0,0,1-10.6836-10.22656,24.16991,24.16991,0,0,1-4.27246-14.50684q0-10.125,5.72949-21.81055A91.62567,91.62567,0,0,1,106.4707,6.71875,49.52671,49.52671,0,0,1,131.043,0a31.77039,31.77039,0,0,1,12.82031,2.62207A17.9876,17.9876,0,0,1,152.99219,11.6543Z"/><path class="cls-2" d="M184.26367,97.31641a14.936,14.936,0,0,1,1.74805,7.08984,22.97459,22.97459,0,0,1-1.2627,7.47852,37.09937,37.09937,0,0,1-3.30175,7.08984,62.43394,62.43394,0,0,1-3.98243,5.9248,29.19953,29.19953,0,0,1-4.56445,5.05079,21.658,21.658,0,0,1-6.02148,3.88476,13.4138,13.4138,0,0,1-6.50782,1.06836,8.82861,8.82861,0,0,1-6.02148-3.59375q-1.74756,12.42919-3.39941,24.47559-1.65235,12.041-3.88477,21.56054a64.52291,64.52291,0,0,1-5.3418,15.34571q-3.104,5.82714-7.96386,5.82812a5.77887,5.77887,0,0,1-5.82715-4.08008q-1.55274-4.07812-1.06836-10.78125a94.4715,94.4715,0,0,1,2.52539-15.15039q2.03906-8.44922,4.95312-17.09375,2.91358-8.64551,6.3125-16.80273a147.717,147.717,0,0,1,6.70215-14.17969q1.35645-5.63087,2.33008-11.07226.96972-5.43458,1.749-11.07129a5.83018,5.83018,0,0,1,2.03907-3.69043q1.64794-1.35645,4.37109-.38868a3.365,3.365,0,0,1,2.42773,3.4961q-.0996,2.52686-.291,4.66211a41.12094,41.12094,0,0,1,5.3418-5.82813,17.80155,17.80155,0,0,1,6.8955-3.88476,11.01432,11.01432,0,0,1,6.89551.292A8.71758,8.71758,0,0,1,184.26367,97.31641Zm-40.40332,44.48242a64.70765,64.70765,0,0,0-2.62207,7.08984q-1.45752,4.56153-2.91406,9.80957-1.456,5.24561-2.81641,10.6836-1.35644,5.436-2.13672,9.80957a54.07791,54.07791,0,0,0-.874,7.08984q-.09522,2.71875.874,2.52539.97413-.19629,2.04-3.10742,1.06933-2.915,2.2334-7.47852,1.166-4.56738,2.13672-10.0039.97411-5.44044,1.8457-10.58692.87452-5.14892,1.457-9.4209Q143.66553,143.93458,143.86035,141.79883Zm19.81348-14.957q1.74756,0,4.95312-4.17578a48.29815,48.29815,0,0,0,5.53614-9.22657,33.3176,33.3176,0,0,0,2.91308-9.22656q.583-4.1748-2.91308-4.17676-3.10987,0-7.38184,4.0791a36.877,36.877,0,0,0-7.5752,11.07227q0,1.749.09668,3.78711a14.01907,14.01907,0,0,0,.68067,3.78809,10.21915,10.21915,0,0,0,1.45605,2.91406A2.681,2.681,0,0,0,163.67383,126.8418Z"/><path class="cls-2" d="M201.93945,98.09375a5.91532,5.91532,0,0,1,2.81641-2.81641,3.88232,3.88232,0,0,1,2.91406-.19433,3.27681,3.27681,0,0,1,1.84571,2.13672,6.11088,6.11088,0,0,1-.38868,4.17675,145.891,145.891,0,0,0-5.63379,16.80176q-2.33056,8.64551-4.46679,15.05371a3.57977,3.57977,0,0,1-1.749,2.33106,5.79415,5.79415,0,0,1-2.91308.77734,7.30147,7.30147,0,0,1-2.91406-.583,3.53759,3.53759,0,0,1-1.94239-2.13671,4.31461,4.31461,0,0,1-.19433-2.91407,29.17059,29.17059,0,0,1,.77734-2.91308q3.104-8.74072,5.53613-15.7334A88.48922,88.48922,0,0,1,201.93945,98.09375Zm15.15137-26.80664q3.8833,0,4.0791,2.332a7.80444,7.80444,0,0,1-.97168,4.4668,63.333,63.333,0,0,1-4.95312,7.96484q-1.84717,2.33056-3.98145,2.13672a7.54006,7.54006,0,0,1-2.91406-1.166,1.75069,1.75069,0,0,1-.77637-2.52539q.77344-1.93944,1.26172-3.10742.48341-1.166.874-2.03906.38819-.876.875-1.94336.48194-1.06494,1.45606-2.81641Q213.9795,71.28956,217.09082,71.28711Z"/><path class="cls-2" d="M268.95313,111.69141a5.5076,5.5076,0,0,1,1.36035-.875,7.84157,7.84157,0,0,1,1.94238-.67969,3.17063,3.17063,0,0,1,1.74805.09766c.51562.19335.77734.74609.77734,1.65039q0,.7793-1.749,3.01171a40.72851,40.72851,0,0,1-4.75879,4.95313,88.21734,88.21734,0,0,1-6.99219,5.63281,92.40507,92.40507,0,0,1-8.35254,5.43946A50.15693,50.15693,0,0,1,243.99316,135a27.40109,27.40109,0,0,1-8.83886,1.55469,20.94113,20.94113,0,0,1-7.96387-1.35938,16.32327,16.32327,0,0,1-5.43848-3.49707,14.008,14.008,0,0,1-3.20507-4.85644,14.74856,14.74856,0,0,1-1.06836-5.43848,25.46489,25.46489,0,0,1,2.13671-10.19824,32.35369,32.35369,0,0,1,5.73047-8.93555,28.25968,28.25968,0,0,1,8.15821-6.3125A20.45788,20.45788,0,0,1,242.9248,93.626q4.27,0,5.92383,2.04A7.34674,7.34674,0,0,1,250.5,100.4248a14.17987,14.17987,0,0,1-1.65137,7.38184,5.41719,5.41719,0,0,1-4.95312,2.71875q-3.10841,0-3.10742-2.71875a3.791,3.791,0,0,1,.67968-2.52539,11.71814,11.71814,0,0,1,1.2627-1.26367,2.38492,2.38492,0,0,0,.77734-1.06836q.19044-.58155-.77734-1.94141-1.94385-.7749-4.66211,1.06836a23.80942,23.80942,0,0,0-5.24414,5.04981,38.409,38.409,0,0,0-4.37109,6.99316,15.635,15.635,0,0,0-1.84473,6.70117,8.641,8.641,0,0,0,2.13672,5.92481q2.13428,2.43017,7.18652,2.42773a22.811,22.811,0,0,0,7.86719-1.45605,48.1002,48.1002,0,0,0,8.06152-3.88575q4.07813-2.42724,8.35254-5.53613Q264.48291,115.19093,268.95313,111.69141Z"/><path class="cls-2" d="M310.32617,128.00781a9.45081,9.45081,0,0,1,0,4.66211q-.583,2.5254-3.49609,2.52539a8.33939,8.33939,0,0,1-5.05078-1.55468,12.521,12.521,0,0,1-3.4961-3.88477,19.09777,19.09777,0,0,1-2.04-5.05078,20.80752,20.80752,0,0,1-.67968-5.05078q-2.14014,2.332-4.66211,5.05078a43.34028,43.34028,0,0,1-5.43848,4.95312,35.31888,35.31888,0,0,1-6.11914,3.78809A14.748,14.748,0,0,1,272.83691,135a9.93466,9.93466,0,0,1-7.1875-2.81641,9.44142,9.44142,0,0,1-2.91308-7.08984,16.37668,16.37668,0,0,1,1.26172-6.21582,28.20737,28.20737,0,0,1,3.30273-5.9248,50.217,50.217,0,0,1,4.46777-5.3418q2.42579-2.52246,4.56446-4.66211a74.51951,74.51951,0,0,1,8.54687-6.89453,17.93519,17.93519,0,0,1,10.48926-3.40039,8.73789,8.73789,0,0,1,4.95313,1.65234,6.30279,6.30279,0,0,1,2.8164,4.56445,7.31175,7.31175,0,0,0,2.81641,1.06836q1.64941.29,2.623,3.20508-.583,1.74756-1.748,5.73047a43.17722,43.17722,0,0,0-1.55469,8.25488,19.58093,19.58093,0,0,0,.583,7.47852A4.50193,4.50193,0,0,0,310.32617,128.00781Zm-36.71289.77735q3.30176,0,7.28418-3.59375a60.52934,60.52934,0,0,0,7.47852-8.15821,78.00216,78.00216,0,0,0,5.9248-8.83886q2.42726-4.27,2.42774-5.63282a4.87516,4.87516,0,0,0-.582-2.52539q-.583-.96972-2.71972,0a34.20431,34.20431,0,0,0-10.39258,7.18653,62.804,62.804,0,0,0-8.1582,9.61523,23.53,23.53,0,0,0-3.88477,8.35352Q270.30859,128.7876,273.61328,128.78516Z"/></g></g></svg>